<svg enable-background="new 0 0 1920 1080" viewBox="0 0 1920 1080" xmlns="http://www.w3.org/2000/svg"><path d="m1584.3 623.6c-11.3 10.8-5.7 18.2.9 39.7 4 12.4 7.9 25.4 11.6 37.9 15 47.7 26.1 107.8 23.7 155.3-.6 15.4-1.7 30.5-4.9 33-2.1 1.5-3.8-.7-5.4-2.5-5.3-6.9-9-15.2-13.8-23.1-24.3-41.6-55.9-83.5-97-110.6-27.4-18.2-33.3 3.8-39.6 27.9-18.6 68.8-83.5 121.2-153.7 89.6-13.7-4.2-22.8-.1-32 10.8-41.9 59.6-113.3 77.7-177.8 43.3-20.1-8.6-40.2.1-57.9 11.9-88 53.6-156.5 73.2-238.4 38.2-23.6-11.1-43.9-25.7-63.5-44.5-16.7-13.9-30.3-39.6-51.4-46.2-10.8-3.3-23.8.2-35.1 3.8-65.8 20.5-137.3 20-187.3-27.7-16-16.2-26.5-35.9-32.2-58.4-4.3-14.3-3.5-34.6-14.5-44.6-11.5-11.1-35.7-7.8-51.6-11-20-3.2-36.9-9.7-52.2-21.7-79.9-65.4-38.8-240.5 38.9-299 22.4-15.1 45-8.8 40.6-43.4-17.5-97.3-.5-195.4 81.8-231.3 52.5-25.6 120.9-15.5 175.5 14.3 13.5 5.4 22.8 1.5 31.7-10.1 55.7-98.1 230-86 276 14.8 8.3 16 17 29.1 32.5 14.4 53.8-45.4 138.9-94 233.4-25.1 14.4 7.4 28-1.2 41.3-10.9 61.4-45.1 150.2-48 216.3-11.8 96 50.2 125.9 157.5 123.3 279.1 3.9 31.1 34.4 48.2 42.3 77.4 15.8 53.8-19.8 99.3-61 129.7z" fill="#5057a6"/><g fill="#e5f0d4"><path d="m1667.5 532.3c10.8-64-48.2-86.5-47-147.4 5.5-176.6-112.5-314.5-279.7-288.8-26.1 4.6-51.1 14-73.8 27.8-8.9 5.4-17.7 10-27.3 10.8-14.4 1.7-30.3-6.1-44-12.7-75.9-39.1-153.9 1.2-196.3 31.4-10.8 8.6-20.5 10.5-29.9-3.1-48.1-77.6-159-100.7-239.6-64.2-18.4 8.4-34.6 20.9-48.1 36-15.9 19.4-34.1 22-56.2 11.9-147.8-56.1-274 36.9-257.1 207.6 6.9 54.7 3.1 46.3-37.3 76.3-69.6 65.5-101.4 189.5-64.6 277 13.7 31.5 39.4 53.8 72.6 64.2 19.5 6.3 45.5 6.6 60.1 23.2 16.4 19 19.1 52.5 33.8 70.9 15.8 24.4 38.2 41.4 65.1 52.2 41.3 16.8 93.1 18.2 144.1 4.4 22.3-7 44.2-4.6 60.9 13.3 36.1 39.3 78.3 69.9 122.6 80.9 76.1 18.1 137.7-1.6 211.7-44.9 10.2-6.1 22-12.4 33-14.2 17.5-3.6 33.8 4.5 50 9.8 41.4 13.3 89.2 5.4 125.2-19.4 17.8-10.4 29.8-31 48.9-38.5 18.1-6.1 37.9 3.9 56.8 2.3 30.8-.9 61-15.6 82.1-36.9 15.2-15 27.6-33.9 36.6-55.6 4.8-10.4 9.9-27.2 22.8-27.2 8.9-.5 22.2 10.3 30 18.3 50.2 53 71.2 100.4 88.1 139 20.1 33.1 27.9-65.9 27.5-92.4 1-52.8-10.7-103-25.9-153.2-5.2-19.8-15.4-39.5-9.6-53.2 6.4-13 19.6-20.9 29.1-32.2 17.8-19.2 31.8-48.1 35.2-72.3zm-83.2 91.3c-11.3 10.8-5.7 18.2.9 39.7 4 12.4 7.9 25.4 11.6 37.9 15 47.7 26.1 107.8 23.7 155.3-.6 15.4-1.7 30.5-4.9 33-2.1 1.5-3.8-.7-5.4-2.5-5.3-6.9-9-15.2-13.8-23.1-24.3-41.6-55.9-83.5-97-110.6-27.4-18.2-33.3 3.8-39.6 27.9-18.6 68.8-83.5 121.2-153.7 89.6-13.7-4.2-22.8-.1-32 10.8-41.9 59.6-113.3 77.7-177.8 43.3-20.1-8.6-40.2.1-57.9 11.9-88 53.6-156.5 73.2-238.4 38.2-23.6-11.1-43.9-25.7-63.5-44.5-16.7-13.9-30.3-39.6-51.4-46.2-10.8-3.3-23.8.2-35.1 3.8-65.8 20.5-137.3 20-187.3-27.7-16-16.2-26.5-35.9-32.2-58.4-4.3-14.3-3.5-34.6-14.5-44.6-11.5-11.1-35.7-7.8-51.6-11-20-3.2-36.9-9.7-52.2-21.7-79.9-65.4-38.8-240.5 38.9-299 22.4-15.1 45-8.8 40.6-43.4-17.5-97.3-.5-195.4 81.8-231.3 52.5-25.6 120.9-15.5 175.5 14.3 13.5 5.4 22.8 1.5 31.7-10.1 55.7-98.1 230-86 276 14.8 8.3 16 17 29.1 32.5 14.4 53.8-45.4 138.9-94 233.4-25.1 14.4 7.4 28-1.2 41.3-10.9 61.4-45.1 150.2-48 216.3-11.8 96 50.2 125.9 157.5 123.3 279.1 3.9 31.1 34.4 48.2 42.3 77.4 15.8 53.8-19.8 99.3-61 129.7z"/><path d="m638.8 303.4c6.6 27.1-23.9 65.8-51.5 61.2-7-3-6.1-14.5-9.9-20.5-7.3-20.1-29.6-17.9-38.4 1.2-8.4 17-3.3 47.6 6.8 65 8.4 15.3 24.3 26.8 41.9 21.4 28.5-8 32.9-40.5 49.4-37.2 16.2 2.6 54.9 21 43.3 44.6-27.3 63.8-132 92.1-189.1 49.2-78.8-59.1-62.1-204 43.6-230.2 41.4-12.3 94.3 1.7 103.8 44.5z"/><path d="m803 248c-1.9 13.3-12.6 56-16.1 80.4-1.5 8.6-3 26.1 10.3 18.3 16.9-10.1 38.6-20.4 60.4-16.4 22.3 4 39.4 23.7 34.6 46.9-3.9 22.5-14.1 43.4-14.6 66.7-.3 7.2.7 14.7 2.8 20.8 3.2 8.8 6.5 17.9-.8 25.1-16.9 21.3-92 37.6-86.6-10.8-1-16.1 29.5-79.6.7-78.5-26.4 9.9-15 58.7-20.1 81-6.1 22.1-39.8 25.1-60.9 22-13.3-1.5-24.3-7.6-23.5-22 1-10.8 5.1-16.3 7.6-29.7 4.3-24.8 6.8-51.6 7.7-76.3 1.5-37.6-3.3-65.1 1.9-102.2.7-5 2.3-9.9 4.8-14.3 13.9-23 45.8-37.7 72.1-35 12.4 1.2 22.7 9.8 20 23.1z"/><path d="m1078.6 379c.1 13.3-1 28.9-2.8 41.8-1.9 13.8-4.1 21.9-3 34.3.3 5.1 2.2 12.7 4.5 16.2 1.7 2.9 3.5 4.8 3.8 8 1.3 11.7-34.2 33.6-55 30.7-8.5-.7-14.6-8.3-19.6-13.4-1.9-1.2-2.8-.3-5.4.6-7.4 3.3-21.5 9.3-32 11-36.8 7.7-72.8-11.8-72-44-.7-72.5 99.8-62.9 105.7-85.8-.6-9.4-16.8-7.6-23.7-6.1-25.8 5.1-42.2 23.7-54.2 24.3-15.8-2.7-12.7-30.6-10.1-41 7-22.7 46.4-38.2 91.8-38 37.8.4 71.8 22.6 72.1 60.5zm-114.5 74.7c0 6.9 4 10.1 11.2 10.1 9.7 0 28.9-17.3 28.9-26.7 0-4.7-1.4-8.3-5.1-8.3-13.3 0-35 15.5-35 24.9z"/><path d="m1198.4 418.6c-.6 25 1.9 51 6.1 75.1 3.6 15.8-33.1 39.5-72.8 38-12.2.5-22.3-6.4-21.4-19.4-.3-23.6 8-79 6.4-125.3-.8-3.2-3.5-3.6-6.2-3.1-6.3 1.1-17.1 6.4-21.4 1.5-4-6.8-1.1-15.1.1-23.4 2.7-13.4 11.2-37 23.6-39.2 11.4.3 5.5-15.1 3.6-21.5-2.7-7.8-7.5-15-7.2-23.1 2-19.8 59.2-36 83.9-29.7 22 9.9 2.4 43.4 5.8 67.3.3 4.2 4.2 5.9 7.7 5.5 6.8-.1 33.8-.3 37.4-.3 6.8.4 5.8-7.5 5.1-12.5-1.8-14.3-8.1-28.4-9.8-42.2-4.3-20.3 65-40.9 87.3-29.9 9.9 6.5 6.5 21.2 5.8 32-1.4 15-4 32-3.4 47.4.4 4.9 4.8 5.9 9.5 5.5 9.8-.6 22.8-5.8 27.3.8 4.4 13.8-1 32.7-4.7 42.9-11.1 29.2-32.3 7.4-32.5 41.9-.4 13.2-.2 27.2.9 40.1 1.1 13.5 4.7 24.6 5 37.6-4 19.3-55.1 25.3-72.6 25.5-12.6.8-22.6-6.8-21.6-19.5-.6-22.4 8.9-59.3 6-104.5-1.6-2.9-4.3-2.2-7.1-2.4-9.3.2-21.1-1.7-29.6 0-11.6 5.1-10.7 23-11.3 33.9z"/><path d="m1452.1 384.7c-8.7 22.3-22.4 49.5-25.8 75.3-4.4 32.6 14.6 29.6 31-8.1 5.9-13.2 10.5-26.5 14.4-40.3 1.8-6.3 3.1-12.3 3.8-17.8.7-7.9 3.1-17 12.8-17.1 29.3 5.4 65.1 38.2 59.4 62.4-25.5 93.4-218.1 279.2-250.8 128.1-1.1-10.6-1.2-21.3 7.2-27.9 5.6-3.3 11.3.3 16.6 3.4 7.1 4.4 14.1 9.9 22.3 12.1 15.6 4.4 35.7-1.6 38.5-13-3.6-16.2-40-85.4-21.1-149 4.8-19.6 27.8-27.7 50.1-29.9 16.2-1.3 46.4-1.3 41.9 21.1z"/><path d="m716.1 591.3c.1 27.9-38.6 58.4-64.4 47.5-6.2-4.6-2.5-15.5-4.9-22.3-2.4-21.2-24.6-24.3-37.7-7.8-12.1 14.5-14.3 45.5-8.5 64.8 4.6 16.9 17.4 31.7 35.8 30.6 29.5-1.2 41.5-31.7 56.7-24.7 15.2 6.3 48.5 33.2 31.7 53.5-41.4 55.7-149.8 58.8-195.4 3.8-62.8-75.9-12.8-212.9 96.1-213.7 43.1-2.4 91.3 23.6 90.5 67.5z"/><path d="m920.8 644.2c.1 13.3-1 28.9-2.8 41.8-1.9 13.8-4.1 21.9-3 34.3.3 5.1 2.2 12.7 4.5 16.2 1.7 2.9 3.5 4.8 3.8 8 1.3 11.7-34.2 33.6-55 30.7-8.5-.7-14.6-8.3-19.6-13.4-1.9-1.2-2.8-.3-5.4.6-7.4 3.3-21.5 9.3-32 11-36.8 7.7-72.8-11.8-72-44-.7-72.5 99.7-62.9 105.7-85.8-.6-9.4-16.8-7.6-23.7-6.1-25.8 5.1-42.2 23.7-54.2 24.3-15.8-2.7-12.7-30.6-10.1-41 6.9-22.7 46.4-38.2 91.8-38 37.8.4 71.8 22.6 72.1 60.5zm-114.5 74.8c0 6.9 4 10.1 11.2 10.1 9.7 0 28.9-17.3 28.9-26.7 0-4.7-1.4-8.3-5.1-8.3-13.3 0-35 15.5-35 24.9z"/><path d="m1010.4 612.1c145.2-101.4 176.5 163.2 42.4 160.2-8.8 0-18.1-3.2-27.4-4.9-3.2.7-3.5 4.4-3.8 7.6-1.4 22.8 6.9 52.1 9.3 72.4 2.1 23.3-75.4 41.3-86.3 20-2.9-4.2-4.4-12.1-4.3-19.2.1-18.8 4-47.2 5.4-107.4.2-18.4 1.1-35.5-.2-54.1-1.1-16.7-7.3-37.4-10.5-48.1-1.2-4.6-2.4-8.5-2.1-13 1.4-16.4 40.5-36 55.9-36.6 9.5-.4 14.3 11.1 17.6 18.1 1.3 2.9 2.9 4.7 3.8 4.9zm8.2 82.7c0 10.1 4.3 15.5 11.9 15.5 14.4 0 24.6-21.3 24.6-37.6 0-10.1-4.3-16.2-12.3-16.2-7.2.1-24.2 16.3-24.2 38.3z"/><path d="m1264.4 643.7c-13.5.2-27.8-20.9-42.2-13-3.3 1.9-4.7 6.4-3.4 9.7 7 19.7 77.7 7.7 93.9 48.2 13.8 33.6-10.7 68.3-43.6 79.9-41.9 16.8-103.1 2.6-107.1-12.1-3.7-11.2 2.3-26.8 10.3-37.9 20.1-29.9 31.3 8.7 62.3 2.2 5-1.4 7.6-7.3 6-12-2.2-6.1-10.6-8.2-21.6-10.2-27.3-3.3-61.9-13.5-67.8-45.8-22.1-77.2 172.2-107 125.3-21.5-3.4 6.3-8.2 11.3-11.6 12.3z"/></g></svg>